# Blender 4.4.3
# www.blender.org
mtllib 丸皿.mtl
o 円
v 0.000000 0.000000 -1.000000
v -0.195090 0.000000 -0.980785
v -0.382683 0.000000 -0.923880
v -0.555570 0.000000 -0.831470
v -0.707107 0.000000 -0.707107
v -0.831470 0.000000 -0.555570
v -0.923880 0.000000 -0.382683
v -0.980785 0.000000 -0.195090
v -1.000000 0.000000 0.000000
v -0.980785 0.000000 0.195090
v -0.923880 0.000000 0.382683
v -0.831470 0.000000 0.555570
v -0.707107 0.000000 0.707107
v -0.555570 0.000000 0.831470
v -0.382683 0.000000 0.923880
v -0.195090 0.000000 0.980785
v 0.000000 0.000000 1.000000
v 0.195090 0.000000 0.980785
v 0.382683 0.000000 0.923880
v 0.555570 0.000000 0.831470
v 0.707107 0.000000 0.707107
v 0.831470 0.000000 0.555570
v 0.923880 0.000000 0.382683
v 0.980785 0.000000 0.195090
v 1.000000 0.000000 0.000000
v 0.980785 0.000000 -0.195090
v 0.923880 0.000000 -0.382683
v 0.831470 0.000000 -0.555570
v 0.707107 0.000000 -0.707107
v 0.555570 0.000000 -0.831470
v 0.382683 0.000000 -0.923880
v 0.195090 0.000000 -0.980785
v 0.004103 0.152074 -1.008613
v -0.190987 0.152074 -0.989398
v -0.378580 0.152074 -0.932492
v -0.551467 0.152074 -0.840082
v -0.703003 0.152074 -0.715720
v -0.827366 0.152074 -0.564183
v -0.919776 0.152074 -0.391296
v -0.976682 0.152074 -0.203703
v -0.995897 0.152074 -0.008613
v -0.976682 0.152074 0.186478
v -0.919776 0.152074 0.374071
v -0.827366 0.152074 0.546957
v -0.703003 0.152074 0.698494
v -0.551467 0.152074 0.822857
v -0.378580 0.152074 0.915267
v -0.190987 0.152074 0.972172
v 0.004103 0.152074 0.991387
v 0.199194 0.152074 0.972172
v 0.386787 0.152074 0.915267
v 0.559674 0.152074 0.822857
v 0.711210 0.152074 0.698494
v 0.835573 0.152074 0.546957
v 0.927983 0.152074 0.374071
v 0.984889 0.152074 0.186478
v 1.004103 0.152074 -0.008613
v 0.984889 0.152074 -0.203703
v 0.927983 0.152074 -0.391296
v 0.835573 0.152074 -0.564183
v 0.711210 0.152074 -0.715720
v 0.559674 0.152074 -0.840082
v 0.386787 0.152074 -0.932492
v 0.199194 0.152074 -0.989398
v 0.004103 0.512890 -1.968241
v -0.378201 0.512890 -1.930587
v -0.745814 0.512890 -1.819073
v -1.084608 0.512890 -1.637984
v -1.381563 0.512890 -1.394279
v -1.625268 0.512890 -1.097324
v -1.806357 0.512890 -0.758530
v -1.917871 0.512890 -0.390917
v -1.955525 0.512890 -0.008613
v -1.917871 0.512890 0.373692
v -1.806357 0.512890 0.741305
v -1.625268 0.512890 1.080098
v -1.381563 0.512890 1.377053
v -1.084608 0.512890 1.620758
v -0.745814 0.512890 1.801847
v -0.378201 0.512890 1.913362
v 0.004103 0.512890 1.951015
v 0.386408 0.512890 1.913362
v 0.754021 0.512890 1.801847
v 1.092814 0.512890 1.620758
v 1.389770 0.512890 1.377053
v 1.633475 0.512890 1.080098
v 1.814564 0.512890 0.741305
v 1.926078 0.512890 0.373692
v 1.963731 0.512890 -0.008613
v 1.926078 0.512890 -0.390917
v 1.814564 0.512890 -0.758530
v 1.633475 0.512890 -1.097324
v 1.389770 0.512890 -1.394279
v 1.092814 0.512890 -1.637984
v 0.754021 0.512890 -1.819073
v 0.386408 0.512890 -1.930587
v 0.004103 0.358981 -1.476922
v -0.282350 0.358981 -1.448709
v -0.557794 0.358981 -1.365154
v -0.811646 0.358981 -1.229468
v -1.034148 0.358981 -1.046864
v -1.216751 0.358981 -0.824362
v -1.352438 0.358981 -0.570511
v -1.435993 0.358981 -0.295066
v -1.464206 0.358981 -0.008613
v -1.435993 0.358981 0.277840
v -1.352438 0.358981 0.553285
v -1.216751 0.358981 0.807136
v -1.034148 0.358981 1.029639
v -0.811646 0.358981 1.212242
v -0.557794 0.358981 1.347928
v -0.282350 0.358981 1.431484
v 0.004103 0.358981 1.459697
v 0.290556 0.358981 1.431484
v 0.566001 0.358981 1.347928
v 0.819852 0.358981 1.212242
v 1.042355 0.358981 1.029639
v 1.224958 0.358981 0.807136
v 1.360644 0.358981 0.553285
v 1.444200 0.358981 0.277840
v 1.472413 0.358981 -0.008613
v 1.444200 0.358981 -0.295066
v 1.360644 0.358981 -0.570511
v 1.224958 0.358981 -0.824362
v 1.042355 0.358981 -1.046864
v 0.819852 0.358981 -1.229468
v 0.566001 0.358981 -1.365154
v 0.290556 0.358981 -1.448709
v 0.004103 0.267161 -1.175277
v -0.223501 0.267161 -1.152860
v -0.442360 0.267161 -1.086470
v -0.644060 0.267161 -0.978658
v -0.820853 0.267161 -0.833569
v -0.965942 0.267161 -0.656777
v -1.073753 0.267161 -0.455076
v -1.140143 0.267161 -0.236218
v -1.162561 0.267161 -0.008613
v -1.140143 0.267161 0.218992
v -1.073753 0.267161 0.437850
v -0.965942 0.267161 0.639551
v -0.820853 0.267161 0.816343
v -0.644060 0.267161 0.961433
v -0.442360 0.267161 1.069244
v -0.223501 0.267161 1.135634
v 0.004103 0.267161 1.158051
v 0.231708 0.267161 1.135634
v 0.450566 0.267161 1.069244
v 0.652267 0.267161 0.961433
v 0.829059 0.267161 0.816343
v 0.974149 0.267161 0.639551
v 1.081960 0.267161 0.437850
v 1.148350 0.267161 0.218992
v 1.170767 0.267161 -0.008613
v 1.148350 0.267161 -0.236218
v 1.081960 0.267161 -0.455076
v 0.974149 0.267161 -0.656777
v 0.829059 0.267161 -0.833569
v 0.652267 0.267161 -0.978658
v 0.450566 0.267161 -1.086470
v 0.231708 0.267161 -1.152860
v 0.004103 0.267161 -0.816787
v -0.153564 0.267161 -0.801259
v -0.305172 0.267161 -0.755269
v -0.444894 0.267161 -0.680585
v -0.567362 0.267161 -0.580078
v -0.667869 0.267161 -0.457611
v -0.742553 0.267161 -0.317888
v -0.788542 0.267161 -0.166280
v -0.804071 0.267161 -0.008613
v -0.788542 0.267161 0.149054
v -0.742553 0.267161 0.300662
v -0.667869 0.267161 0.440385
v -0.567362 0.267161 0.562853
v -0.444894 0.267161 0.663360
v -0.305172 0.267161 0.738043
v -0.153564 0.267161 0.784033
v 0.004103 0.267161 0.799562
v 0.161770 0.267161 0.784033
v 0.313378 0.267161 0.738043
v 0.453101 0.267161 0.663360
v 0.575569 0.267161 0.562853
v 0.676076 0.267161 0.440385
v 0.750759 0.267161 0.300662
v 0.796749 0.267161 0.149054
v 0.812278 0.267161 -0.008613
v 0.796749 0.267161 -0.166280
v 0.750759 0.267161 -0.317888
v 0.676076 0.267161 -0.457611
v 0.575569 0.267161 -0.580078
v 0.453101 0.267161 -0.680585
v 0.313378 0.267161 -0.755269
v 0.161770 0.267161 -0.801259
vn -0.0000 -1.0000 -0.0000
vn 0.1026 -0.9355 0.3382
vn -0.9561 0.0422 0.2900
vn 0.9950 -0.0213 0.0980
vn -0.8808 0.0504 0.4708
vn 0.9947 -0.0324 -0.0980
vn -0.7718 0.0567 0.6334
vn 0.9561 -0.0422 -0.2900
vn -0.6332 0.0608 0.7716
vn 0.8808 -0.0504 -0.4708
vn -0.4705 0.0625 0.8802
vn -0.0979 -0.0536 -0.9938
vn 0.7718 -0.0567 -0.6334
vn -0.2897 0.0619 0.9551
vn -0.2900 -0.0463 -0.9559
vn 0.6332 -0.0608 -0.7716
vn -0.0978 0.0589 0.9935
vn -0.4711 -0.0372 -0.8813
vn 0.4705 -0.0625 -0.8802
vn 0.0979 0.0536 0.9938
vn -0.6342 -0.0267 -0.7727
vn 0.2897 -0.0619 -0.9551
vn 0.2900 0.0463 0.9559
vn -0.7729 -0.0151 -0.6343
vn 0.0978 -0.0589 -0.9935
vn 0.4711 0.0372 0.8813
vn -0.8819 -0.0029 -0.4714
vn 0.6342 0.0267 0.7727
vn -0.9569 0.0094 -0.2903
vn 0.7729 0.0151 0.6343
vn -0.9950 0.0213 -0.0980
vn 0.8819 0.0029 0.4714
vn -0.9947 0.0324 0.0980
vn 0.9569 -0.0094 0.2903
vn -0.2321 0.9539 -0.1905
vn -0.2732 -0.9355 -0.2242
vn 0.0346 -0.9355 -0.3517
vn 0.1666 -0.9355 0.3117
vn -0.3117 -0.9355 -0.1666
vn 0.2242 -0.9355 0.2732
vn -0.3382 -0.9355 -0.1026
vn 0.2732 -0.9355 0.2242
vn -0.3517 -0.9355 -0.0346
vn 0.3117 -0.9355 0.1666
vn -0.3517 -0.9355 0.0346
vn 0.3382 -0.9355 0.1026
vn -0.3382 -0.9355 0.1026
vn 0.3517 -0.9355 0.0346
vn -0.3117 -0.9355 0.1666
vn 0.3517 -0.9355 -0.0346
vn -0.2732 -0.9355 0.2242
vn 0.3382 -0.9355 -0.1026
vn -0.2242 -0.9355 0.2732
vn 0.3117 -0.9355 -0.1666
vn -0.1666 -0.9355 0.3117
vn -0.0346 -0.9355 -0.3517
vn 0.2732 -0.9355 -0.2242
vn -0.1026 -0.9355 0.3382
vn -0.1026 -0.9355 -0.3382
vn 0.2242 -0.9355 -0.2732
vn -0.0346 -0.9355 0.3517
vn -0.1666 -0.9355 -0.3117
vn 0.1666 -0.9355 -0.3117
vn 0.0346 -0.9355 0.3517
vn -0.2242 -0.9355 -0.2732
vn 0.1026 -0.9355 -0.3382
vn -0.2911 0.9563 -0.0287
vn 0.2988 0.9539 0.0294
vn -0.2648 0.9539 -0.1415
vn 0.2988 0.9539 -0.0294
vn -0.2873 0.9539 -0.0872
vn 0.2873 0.9539 -0.0872
vn -0.2988 0.9539 -0.0294
vn 0.2648 0.9539 -0.1415
vn -0.2988 0.9539 0.0294
vn 0.2321 0.9539 -0.1905
vn -0.2873 0.9539 0.0872
vn 0.1905 0.9539 -0.2321
vn -0.2648 0.9539 0.1415
vn 0.1415 0.9539 -0.2648
vn 0.0294 0.9539 0.2988
vn -0.2321 0.9539 0.1905
vn 0.0872 0.9539 -0.2873
vn 0.0872 0.9539 0.2873
vn -0.1905 0.9539 0.2321
vn 0.0294 0.9539 -0.2988
vn 0.1415 0.9539 0.2648
vn -0.1415 0.9539 0.2648
vn -0.0294 0.9539 -0.2988
vn 0.1905 0.9539 0.2321
vn -0.0872 0.9539 0.2873
vn -0.0872 0.9539 -0.2873
vn 0.2321 0.9539 0.1905
vn -0.0294 0.9539 0.2988
vn -0.1415 0.9539 -0.2648
vn 0.2648 0.9539 0.1415
vn -0.1905 0.9539 -0.2321
vn 0.2873 0.9539 0.0872
vn -0.0000 1.0000 -0.0000
vn 0.2580 0.9563 -0.1379
vn -0.2911 0.9563 0.0287
vn 0.2261 0.9563 -0.1856
vn -0.2799 0.9563 0.0849
vn 0.1856 0.9563 -0.2261
vn -0.2580 0.9563 0.1379
vn 0.1379 0.9563 -0.2580
vn 0.0287 0.9563 0.2911
vn -0.2261 0.9563 0.1856
vn 0.0849 0.9563 -0.2799
vn 0.0849 0.9563 0.2799
vn -0.1856 0.9563 0.2261
vn 0.0287 0.9563 -0.2911
vn 0.1379 0.9563 0.2580
vn -0.1379 0.9563 0.2580
vn -0.0287 0.9563 -0.2911
vn 0.1856 0.9563 0.2261
vn -0.0849 0.9563 0.2799
vn -0.0849 0.9563 -0.2799
vn 0.2261 0.9563 0.1856
vn -0.0287 0.9563 0.2911
vn -0.1379 0.9563 -0.2580
vn 0.2580 0.9563 0.1379
vn -0.1856 0.9563 -0.2261
vn 0.2799 0.9563 0.0849
vn -0.2261 0.9563 -0.1856
vn 0.2911 0.9563 0.0287
vn -0.2580 0.9563 -0.1379
vn 0.2911 0.9563 -0.0287
vn -0.2799 0.9563 -0.0849
vn 0.2799 0.9563 -0.0849
vt 0.000000 0.000000
s 0
usemtl 皿
f 2/1/1 1/1/1 32/1/1 31/1/1 30/1/1 29/1/1 28/1/1 27/1/1 26/1/1 25/1/1 24/1/1 23/1/1 22/1/1 21/1/1 20/1/1 19/1/1 18/1/1 17/1/1 16/1/1 15/1/1 14/1/1 13/1/1 12/1/1 11/1/1 10/1/1 9/1/1 8/1/1 7/1/1 6/1/1 5/1/1 4/1/1 3/1/1
f 50/1/2 51/1/2 83/1/2 82/1/2
f 10/1/3 11/1/3 43/1/3 42/1/3
f 24/1/4 25/1/4 57/1/4 56/1/4
f 11/1/5 12/1/5 44/1/5 43/1/5
f 25/1/6 26/1/6 58/1/6 57/1/6
f 12/1/7 13/1/7 45/1/7 44/1/7
f 26/1/8 27/1/8 59/1/8 58/1/8
f 13/1/9 14/1/9 46/1/9 45/1/9
f 27/1/10 28/1/10 60/1/10 59/1/10
f 14/1/11 15/1/11 47/1/11 46/1/11
f 1/1/12 2/1/12 34/1/12 33/1/12
f 28/1/13 29/1/13 61/1/13 60/1/13
f 15/1/14 16/1/14 48/1/14 47/1/14
f 2/1/15 3/1/15 35/1/15 34/1/15
f 29/1/16 30/1/16 62/1/16 61/1/16
f 16/1/17 17/1/17 49/1/17 48/1/17
f 3/1/18 4/1/18 36/1/18 35/1/18
f 30/1/19 31/1/19 63/1/19 62/1/19
f 17/1/20 18/1/20 50/1/20 49/1/20
f 4/1/21 5/1/21 37/1/21 36/1/21
f 31/1/22 32/1/22 64/1/22 63/1/22
f 18/1/23 19/1/23 51/1/23 50/1/23
f 5/1/24 6/1/24 38/1/24 37/1/24
f 32/1/25 1/1/25 33/1/25 64/1/25
f 19/1/26 20/1/26 52/1/26 51/1/26
f 6/1/27 7/1/27 39/1/27 38/1/27
f 20/1/28 21/1/28 53/1/28 52/1/28
f 7/1/29 8/1/29 40/1/29 39/1/29
f 21/1/30 22/1/30 54/1/30 53/1/30
f 8/1/31 9/1/31 41/1/31 40/1/31
f 22/1/32 23/1/32 55/1/32 54/1/32
f 9/1/33 10/1/33 42/1/33 41/1/33
f 23/1/34 24/1/34 56/1/34 55/1/34
f 85/1/35 86/1/35 118/1/35 117/1/35
f 37/1/36 38/1/36 70/1/36 69/1/36
f 64/1/37 33/1/37 65/1/37 96/1/37
f 51/1/38 52/1/38 84/1/38 83/1/38
f 38/1/39 39/1/39 71/1/39 70/1/39
f 52/1/40 53/1/40 85/1/40 84/1/40
f 39/1/41 40/1/41 72/1/41 71/1/41
f 53/1/42 54/1/42 86/1/42 85/1/42
f 40/1/43 41/1/43 73/1/43 72/1/43
f 54/1/44 55/1/44 87/1/44 86/1/44
f 41/1/45 42/1/45 74/1/45 73/1/45
f 55/1/46 56/1/46 88/1/46 87/1/46
f 42/1/47 43/1/47 75/1/47 74/1/47
f 56/1/48 57/1/48 89/1/48 88/1/48
f 43/1/49 44/1/49 76/1/49 75/1/49
f 57/1/50 58/1/50 90/1/50 89/1/50
f 44/1/51 45/1/51 77/1/51 76/1/51
f 58/1/52 59/1/52 91/1/52 90/1/52
f 45/1/53 46/1/53 78/1/53 77/1/53
f 59/1/54 60/1/54 92/1/54 91/1/54
f 46/1/55 47/1/55 79/1/55 78/1/55
f 33/1/56 34/1/56 66/1/56 65/1/56
f 60/1/57 61/1/57 93/1/57 92/1/57
f 47/1/58 48/1/58 80/1/58 79/1/58
f 34/1/59 35/1/59 67/1/59 66/1/59
f 61/1/60 62/1/60 94/1/60 93/1/60
f 48/1/61 49/1/61 81/1/61 80/1/61
f 35/1/62 36/1/62 68/1/62 67/1/62
f 62/1/63 63/1/63 95/1/63 94/1/63
f 49/1/64 50/1/64 82/1/64 81/1/64
f 36/1/65 37/1/65 69/1/65 68/1/65
f 63/1/66 64/1/66 96/1/66 95/1/66
f 120/1/67 121/1/67 153/1/67 152/1/67
f 72/1/68 73/1/68 105/1/68 104/1/68
f 86/1/69 87/1/69 119/1/69 118/1/69
f 73/1/70 74/1/70 106/1/70 105/1/70
f 87/1/71 88/1/71 120/1/71 119/1/71
f 74/1/72 75/1/72 107/1/72 106/1/72
f 88/1/73 89/1/73 121/1/73 120/1/73
f 75/1/74 76/1/74 108/1/74 107/1/74
f 89/1/75 90/1/75 122/1/75 121/1/75
f 76/1/76 77/1/76 109/1/76 108/1/76
f 90/1/77 91/1/77 123/1/77 122/1/77
f 77/1/78 78/1/78 110/1/78 109/1/78
f 91/1/79 92/1/79 124/1/79 123/1/79
f 78/1/80 79/1/80 111/1/80 110/1/80
f 65/1/81 66/1/81 98/1/81 97/1/81
f 92/1/82 93/1/82 125/1/82 124/1/82
f 79/1/83 80/1/83 112/1/83 111/1/83
f 66/1/84 67/1/84 99/1/84 98/1/84
f 93/1/85 94/1/85 126/1/85 125/1/85
f 80/1/86 81/1/86 113/1/86 112/1/86
f 67/1/87 68/1/87 100/1/87 99/1/87
f 94/1/88 95/1/88 127/1/88 126/1/88
f 81/1/89 82/1/89 114/1/89 113/1/89
f 68/1/90 69/1/90 101/1/90 100/1/90
f 95/1/91 96/1/91 128/1/91 127/1/91
f 82/1/92 83/1/92 115/1/92 114/1/92
f 69/1/93 70/1/93 102/1/93 101/1/93
f 96/1/94 65/1/94 97/1/94 128/1/94
f 83/1/95 84/1/95 116/1/95 115/1/95
f 70/1/96 71/1/96 103/1/96 102/1/96
f 84/1/97 85/1/97 117/1/97 116/1/97
f 71/1/98 72/1/98 104/1/98 103/1/98
f 155/1/99 156/1/99 188/1/99 187/1/99
f 107/1/100 108/1/100 140/1/100 139/1/100
f 121/1/101 122/1/101 154/1/101 153/1/101
f 108/1/102 109/1/102 141/1/102 140/1/102
f 122/1/103 123/1/103 155/1/103 154/1/103
f 109/1/104 110/1/104 142/1/104 141/1/104
f 123/1/105 124/1/105 156/1/105 155/1/105
f 110/1/106 111/1/106 143/1/106 142/1/106
f 97/1/107 98/1/107 130/1/107 129/1/107
f 124/1/108 125/1/108 157/1/108 156/1/108
f 111/1/109 112/1/109 144/1/109 143/1/109
f 98/1/110 99/1/110 131/1/110 130/1/110
f 125/1/111 126/1/111 158/1/111 157/1/111
f 112/1/112 113/1/112 145/1/112 144/1/112
f 99/1/113 100/1/113 132/1/113 131/1/113
f 126/1/114 127/1/114 159/1/114 158/1/114
f 113/1/115 114/1/115 146/1/115 145/1/115
f 100/1/116 101/1/116 133/1/116 132/1/116
f 127/1/117 128/1/117 160/1/117 159/1/117
f 114/1/118 115/1/118 147/1/118 146/1/118
f 101/1/119 102/1/119 134/1/119 133/1/119
f 128/1/120 97/1/120 129/1/120 160/1/120
f 115/1/121 116/1/121 148/1/121 147/1/121
f 102/1/122 103/1/122 135/1/122 134/1/122
f 116/1/123 117/1/123 149/1/123 148/1/123
f 103/1/124 104/1/124 136/1/124 135/1/124
f 117/1/125 118/1/125 150/1/125 149/1/125
f 104/1/126 105/1/126 137/1/126 136/1/126
f 118/1/127 119/1/127 151/1/127 150/1/127
f 105/1/128 106/1/128 138/1/128 137/1/128
f 119/1/129 120/1/129 152/1/129 151/1/129
f 106/1/130 107/1/130 139/1/130 138/1/130
f 162/1/99 163/1/99 164/1/99 165/1/99 166/1/99 167/1/99 168/1/99 169/1/99 170/1/99 171/1/99 172/1/99 173/1/99 174/1/99 175/1/99 176/1/99 177/1/99 178/1/99 179/1/99 180/1/99 181/1/99 182/1/99 183/1/99 184/1/99 185/1/99 186/1/99 187/1/99 188/1/99 189/1/99 190/1/99 191/1/99 192/1/99 161/1/99
f 142/1/99 143/1/99 175/1/99 174/1/99
f 129/1/99 130/1/99 162/1/99 161/1/99
f 156/1/99 157/1/99 189/1/99 188/1/99
f 143/1/99 144/1/99 176/1/99 175/1/99
f 130/1/99 131/1/99 163/1/99 162/1/99
f 157/1/99 158/1/99 190/1/99 189/1/99
f 144/1/99 145/1/99 177/1/99 176/1/99
f 131/1/99 132/1/99 164/1/99 163/1/99
f 158/1/99 159/1/99 191/1/99 190/1/99
f 145/1/99 146/1/99 178/1/99 177/1/99
f 132/1/99 133/1/99 165/1/99 164/1/99
f 159/1/99 160/1/99 192/1/99 191/1/99
f 146/1/99 147/1/99 179/1/99 178/1/99
f 133/1/99 134/1/99 166/1/99 165/1/99
f 160/1/99 129/1/99 161/1/99 192/1/99
f 147/1/99 148/1/99 180/1/99 179/1/99
f 134/1/99 135/1/99 167/1/99 166/1/99
f 148/1/99 149/1/99 181/1/99 180/1/99
f 135/1/99 136/1/99 168/1/99 167/1/99
f 149/1/99 150/1/99 182/1/99 181/1/99
f 136/1/99 137/1/99 169/1/99 168/1/99
f 150/1/99 151/1/99 183/1/99 182/1/99
f 137/1/99 138/1/99 170/1/99 169/1/99
f 151/1/99 152/1/99 184/1/99 183/1/99
f 138/1/99 139/1/99 171/1/99 170/1/99
f 152/1/99 153/1/99 185/1/99 184/1/99
f 139/1/99 140/1/99 172/1/99 171/1/99
f 153/1/99 154/1/99 186/1/99 185/1/99
f 140/1/99 141/1/99 173/1/99 172/1/99
f 154/1/99 155/1/99 187/1/99 186/1/99
f 141/1/99 142/1/99 174/1/99 173/1/99
o 
v 0.000000 0.000000 0.000000
