# Blender 4.4.3
# www.blender.org
mtllib 四角皿3.mtl
o 平面
v -0.663554 -0.211806 0.681727
v 0.699670 -0.211806 0.681727
v -0.663554 -0.211806 -0.681497
v 0.699670 -0.211806 -0.681497
v -0.643578 -0.278138 0.660450
v 0.677417 -0.278138 0.660450
v -0.643578 -0.278138 -0.660544
v 0.677417 -0.278138 -0.660544
v -0.600306 -0.210285 0.649776
v -0.649776 -0.210285 0.600306
v -0.613110 -0.210285 0.648091
v -0.625041 -0.210285 0.643148
v -0.635287 -0.210285 0.635287
v -0.643148 -0.210285 0.625041
v -0.648091 -0.210285 0.613110
v 0.649776 -0.210285 0.600306
v 0.600306 -0.210285 0.649776
v 0.648091 -0.210285 0.613110
v 0.643148 -0.210285 0.625041
v 0.635287 -0.210285 0.635287
v 0.625041 -0.210285 0.643148
v 0.613110 -0.210285 0.648091
v -0.649776 -0.210285 -0.600306
v -0.600306 -0.210285 -0.649776
v -0.648091 -0.210285 -0.613110
v -0.643148 -0.210285 -0.625041
v -0.635287 -0.210285 -0.635287
v -0.625041 -0.210285 -0.643148
v -0.613110 -0.210285 -0.648091
v 0.600306 -0.210285 -0.649776
v 0.649776 -0.210285 -0.600306
v 0.613110 -0.210285 -0.648091
v 0.625041 -0.210285 -0.643148
v 0.635287 -0.210285 -0.635287
v 0.643148 -0.210285 -0.625041
v 0.648091 -0.210285 -0.613110
v -0.950530 0.000000 -1.000000
v -1.000000 0.000000 -0.950530
v -0.975195 -0.015616 -0.976518
v -0.963334 0.000000 -0.998314
v -0.975265 0.000000 -0.993372
v -0.985511 0.000000 -0.985511
v -0.993372 0.000000 -0.975265
v -0.998314 0.000000 -0.963334
v -1.000000 0.000000 0.950530
v -0.950530 0.000000 1.000000
v -0.975188 -0.015620 0.976528
v -0.998314 0.000000 0.963334
v -0.993372 0.000000 0.975265
v -0.985511 0.000000 0.985511
v -0.975265 0.000000 0.993372
v -0.963334 0.000000 0.998314
v 0.950530 0.000000 1.000000
v 1.000000 0.000000 0.950530
v 0.976799 -0.016362 0.975413
v 0.963334 0.000000 0.998314
v 0.975265 0.000000 0.993372
v 0.985511 0.000000 0.985511
v 0.993372 0.000000 0.975265
v 0.998314 0.000000 0.963334
v 1.000000 0.000000 -0.950530
v 0.950530 0.000000 -1.000000
v 0.976806 -0.016357 -0.975403
v 0.998314 0.000000 -0.963334
v 0.993372 0.000000 -0.975265
v 0.985511 0.000000 -0.985511
v 0.975265 0.000000 -0.993372
v 0.963334 0.000000 -0.998314
v -0.935201 -0.001696 -0.983873
v -0.947798 -0.001696 -0.982215
v -0.959537 -0.001696 -0.977352
v -0.969617 -0.001696 -0.969617
v -0.977352 -0.001696 -0.959537
v -0.982215 -0.001696 -0.947798
v -0.983873 -0.001696 -0.935201
v -0.983873 -0.001696 0.935201
v -0.982215 -0.001696 0.947798
v -0.977352 -0.001696 0.959537
v -0.969617 -0.001696 0.969617
v -0.959537 -0.001696 0.977352
v -0.947798 -0.001696 0.982215
v -0.935201 -0.001696 0.983873
v 0.935201 -0.001696 0.983873
v 0.947798 -0.001696 0.982215
v 0.959537 -0.001696 0.977352
v 0.969617 -0.001696 0.969617
v 0.977352 -0.001696 0.959537
v 0.982215 -0.001696 0.947798
v 0.983873 -0.001696 0.935201
v 0.983873 -0.001696 -0.935201
v 0.982215 -0.001696 -0.947798
v 0.977352 -0.001696 -0.959537
v 0.969617 -0.001696 -0.969617
v 0.959537 -0.001696 -0.977352
v 0.947798 -0.001696 -0.982215
v 0.935201 -0.001696 -0.983873
v -0.590625 -0.208589 -0.639297
v -0.603223 -0.208589 -0.637639
v -0.614961 -0.208589 -0.632777
v -0.625042 -0.208589 -0.625042
v -0.632777 -0.208589 -0.614961
v -0.637639 -0.208589 -0.603223
v -0.639297 -0.208589 -0.590625
v -0.603223 -0.208589 0.637639
v -0.590625 -0.208589 0.639297
v -0.614961 -0.208589 0.632777
v -0.625042 -0.208589 0.625042
v -0.632777 -0.208589 0.614961
v -0.637639 -0.208589 0.603223
v -0.639297 -0.208589 0.590625
v 0.637639 -0.208589 0.603223
v 0.639297 -0.208589 0.590625
v 0.632777 -0.208589 0.614961
v 0.625042 -0.208589 0.625042
v 0.614961 -0.208589 0.632777
v 0.603223 -0.208589 0.637639
v 0.590625 -0.208589 0.639297
v 0.603223 -0.208589 -0.637639
v 0.590625 -0.208589 -0.639297
v 0.614961 -0.208589 -0.632777
v 0.625042 -0.208589 -0.625042
v 0.632777 -0.208589 -0.614961
v 0.637639 -0.208589 -0.603223
v 0.639297 -0.208589 -0.590625
v -0.664693 -0.278138 -0.681659
v -0.664693 -0.278138 0.681566
v 0.698532 -0.278138 0.681566
v 0.698532 -0.278138 -0.681659
v -0.647493 -0.222142 -0.642333
v -0.647493 -0.222142 0.678662
v 0.673501 -0.222142 0.678662
v 0.673501 -0.222142 -0.642333
vn -0.9999 0.0172 -0.0000
vn 0.9976 0.0698 -0.0000
vn 0.9999 -0.0172 -0.0000
vn -0.0000 -0.0024 1.0000
vn -0.0000 0.0024 -1.0000
vn 0.0802 0.7891 0.6090
vn 0.2707 0.7067 0.6537
vn 0.4618 0.6516 0.6018
vn 0.5972 0.6583 0.4582
vn 0.6388 0.7224 0.2646
vn 0.5880 0.8052 0.0774
vn 0.5880 0.8052 -0.0774
vn 0.6389 0.7224 -0.2646
vn 0.5973 0.6582 -0.4583
vn 0.4619 0.6514 -0.6020
vn 0.2708 0.7065 -0.6539
vn 0.0802 0.7889 -0.6093
vn -0.0804 0.7881 -0.6103
vn -0.2736 0.6993 -0.6605
vn -0.4722 0.6312 -0.6154
vn -0.6201 0.6238 -0.4758
vn -0.6757 0.6819 -0.2799
vn -0.6324 0.7701 -0.0833
vn -0.6324 0.7701 0.0833
vn -0.6757 0.6820 0.2799
vn -0.6200 0.6239 0.4758
vn -0.4721 0.6314 0.6152
vn -0.2735 0.6995 0.6602
vn -0.0803 0.7883 0.6100
vn -0.0462 -0.9971 0.0602
vn 0.0462 -0.9971 -0.0602
vn -0.0602 -0.9971 0.0462
vn 0.0602 -0.9971 -0.0462
vn -0.0479 0.9921 0.1156
vn 0.0479 0.9921 -0.1156
vn -0.0750 -0.9967 0.0311
vn 0.0750 -0.9967 -0.0311
vn -0.0930 -0.9956 0.0122
vn 0.0930 -0.9956 -0.0122
vn -0.0188 0.9896 0.1428
vn 0.0188 0.9896 -0.1428
vn -0.1428 0.9896 -0.0188
vn 0.0188 0.9896 0.1428
vn -0.1156 0.9921 -0.0479
vn 0.0479 0.9921 0.1156
vn -0.0930 0.9931 -0.0714
vn 0.0714 0.9931 0.0930
vn -0.0000 -0.9945 -0.1046
vn -0.0930 -0.9956 -0.0122
vn 0.0930 -0.9956 0.0122
vn 0.1046 -0.9945 -0.0000
vn -0.0750 -0.9967 -0.0311
vn 0.0750 -0.9967 0.0311
vn -0.0714 0.9931 -0.0930
vn -0.0000 -1.0000 -0.0000
vn 0.0930 0.9931 0.0714
vn -0.0000 -0.9945 0.1046
vn -0.0602 -0.9971 -0.0462
vn 0.5328 0.8463 -0.0000
vn -0.0000 0.8327 0.5537
vn -0.0000 0.8325 -0.5540
vn -0.5763 0.8172 -0.0000
vn -0.0616 -0.8817 -0.4678
vn -0.1598 -0.9086 -0.3858
vn -0.2396 -0.9193 -0.3123
vn -0.3123 -0.9193 -0.2396
vn -0.3858 -0.9086 -0.1598
vn -0.4678 -0.8817 -0.0616
vn -0.0616 -0.8817 0.4678
vn -0.1598 -0.9086 0.3858
vn -0.2396 -0.9193 0.3123
vn -0.3123 -0.9193 0.2396
vn -0.3858 -0.9086 0.1598
vn -0.4678 -0.8817 0.0616
vn 0.4678 -0.8817 0.0616
vn 0.3858 -0.9086 0.1598
vn 0.3123 -0.9193 0.2396
vn 0.2396 -0.9193 0.3123
vn 0.1598 -0.9086 0.3858
vn 0.0616 -0.8817 0.4678
vn 0.0616 -0.8817 -0.4678
vn 0.1598 -0.9086 -0.3858
vn 0.2396 -0.9193 -0.3123
vn 0.3123 -0.9193 -0.2396
vn 0.3858 -0.9086 -0.1598
vn 0.4678 -0.8817 -0.0616
vn -0.5148 -0.8573 -0.0000
vn -0.0000 -0.8573 0.5148
vn 0.5148 -0.8573 -0.0000
vn -0.0000 -0.8573 -0.5148
vn 0.0714 0.9931 -0.0930
vn -0.0714 0.9931 0.0930
vn 0.0311 -0.9967 -0.0750
vn -0.0311 -0.9967 0.0750
vn 0.0122 -0.9956 -0.0930
vn -0.0122 -0.9956 0.0930
vn 0.0930 0.9931 -0.0714
vn -0.0930 0.9931 0.0714
vn 0.1156 0.9921 -0.0479
vn -0.1156 0.9921 0.0479
vn 0.1428 0.9896 -0.0188
vn -0.1428 0.9896 0.0188
vn -0.1597 0.9872 -0.0000
vn 0.1428 0.9896 0.0188
vn -0.1046 -0.9945 -0.0000
vn -0.0188 0.9896 -0.1428
vn 0.0122 -0.9956 0.0930
vn -0.0122 -0.9956 -0.0930
vn -0.0000 0.9872 0.1597
vn 0.0311 -0.9967 0.0750
vn -0.0311 -0.9967 -0.0750
vn -0.0000 0.9872 -0.1597
vn 0.1156 0.9921 0.0479
vn -0.0479 0.9921 -0.1156
vn 0.0462 -0.9971 0.0602
vn -0.0462 -0.9971 -0.0602
vn 0.1597 0.9872 -0.0000
vn 0.0602 -0.9971 0.0462
vn -0.0000 1.0000 -0.0000
vn -0.9976 -0.0698 -0.0000
vn -0.0000 0.3093 -0.9510
vn -0.0000 -0.3093 0.9510
vt 1.000000 0.000000
vt 1.000000 1.000000
vt 0.984511 0.015489
vt 0.984511 0.984511
vt 0.000000 1.000000
vt 0.000000 0.000000
vt 0.024735 1.000000
vt 0.017837 0.999938
vt 0.010359 0.999758
vt 0.002552 0.999470
vt -0.005395 0.999095
vt -0.012651 0.998659
vt -0.018389 0.998191
vt 0.000000 0.024735
vt 0.000062 0.017837
vt 0.000242 0.010359
vt 0.000530 0.002552
vt 0.000905 -0.005395
vt 0.001341 -0.012651
vt 0.001809 -0.018389
vt 0.975265 0.000000
vt 0.982163 0.000062
vt 0.989641 0.000242
vt 0.997448 0.000530
vt 1.005395 0.000905
vt 1.012651 0.001341
vt 1.018389 0.001809
vt 1.000000 0.975265
vt 0.999938 0.982163
vt 0.999758 0.989641
vt 0.999470 0.997448
vt 0.999095 1.005395
vt 0.998659 1.012651
vt 0.998191 1.018389
vt 0.035782 0.022312
vt 0.044654 0.018670
vt 0.964218 0.977688
vt 0.955346 0.981330
vt 0.054167 0.017426
vt 0.945833 0.982574
vt 0.018670 0.955346
vt 0.017426 0.945833
vt 0.945833 0.017426
vt 0.955346 0.018670
vt 0.022312 0.964218
vt 0.964218 0.022312
vt 0.028100 0.971900
vt 0.971900 0.028100
vt 0.975265 1.000000
vt 1.000000 0.024735
vt 0.035782 0.977688
vt 0.028100 0.028100
vt 0.022312 0.035782
vt 0.018670 0.044654
vt 0.017426 0.054167
vt 0.044654 0.981330
vt 0.054167 0.982574
vt 0.971900 0.971900
vt 0.977688 0.964218
vt 0.981330 0.955346
vt 0.982573 0.945833
vt 0.982574 0.054167
vt 0.981330 0.044654
vt 0.977688 0.035782
vt 0.024735 0.000000
vt 0.000000 0.975265
vt 0.017837 0.999938
vt 0.010359 0.999758
vt 0.000611 0.999389
vt 0.000242 0.989641
vt 0.000062 0.982163
vt 0.017837 0.000062
vt 0.010359 0.000242
vt 0.000611 0.000611
vt 0.000242 0.010359
vt 0.999938 0.017837
vt 0.999758 0.010359
vt 0.999389 0.000611
vt 0.982163 0.999938
vt 0.989641 0.999758
vt 0.999389 0.999389
vt 0.999758 0.989641
vt 0.999938 0.982163
vt 0.015489 0.015489
vt 0.015489 0.984511
s 0
usemtl マテリアル
f 2/1/1 4/2/1 128/2/1 127/1/1
f 6/3/2 8/4/2 132/4/2 131/3/2
f 3/5/3 1/6/3 126/6/3 125/5/3
f 4/2/4 3/5/4 125/5/4 128/2/4
f 1/6/5 2/1/5 127/1/5 126/6/5
f 37/7/6 40/8/6 39/5/6
f 40/8/7 41/9/7 39/5/7
f 41/9/8 42/10/8 39/5/8
f 42/10/9 43/11/9 39/5/9
f 43/11/10 44/12/10 39/5/10
f 44/12/11 38/13/11 39/5/11
f 45/14/12 48/15/12 47/6/12
f 48/15/13 49/16/13 47/6/13
f 49/16/14 50/17/14 47/6/14
f 50/17/15 51/18/15 47/6/15
f 51/18/16 52/19/16 47/6/16
f 52/19/17 46/20/17 47/6/17
f 53/21/18 56/22/18 55/1/18
f 56/22/19 57/23/19 55/1/19
f 57/23/20 58/24/20 55/1/20
f 58/24/21 59/25/21 55/1/21
f 59/25/22 60/26/22 55/1/22
f 60/26/23 54/27/23 55/1/23
f 61/28/24 64/29/24 63/2/24
f 64/29/25 65/30/25 63/2/25
f 65/30/26 66/31/26 63/2/26
f 66/31/27 67/32/27 63/2/27
f 67/32/28 68/33/28 63/2/28
f 68/33/29 62/34/29 63/2/29
f 51/18/30 50/17/30 79/17/30 80/18/30
f 67/32/31 66/31/31 93/31/31 94/32/31
f 50/17/32 49/16/32 78/16/32 79/17/32
f 66/31/33 65/30/33 92/30/33 93/31/33
f 12/35/34 11/36/34 104/36/34 106/35/34
f 33/37/35 32/38/35 118/38/35 120/37/35
f 49/16/36 48/15/36 77/15/36 78/16/36
f 65/30/37 64/29/37 91/29/37 92/30/37
f 48/15/38 45/14/38 76/14/38 77/15/38
f 64/29/39 61/28/39 90/28/39 91/29/39
f 11/36/40 9/39/40 105/39/40 104/36/40
f 32/38/41 30/40/41 119/40/41 118/38/41
f 25/41/42 23/42/42 103/42/42 102/41/42
f 17/43/43 22/44/43 116/44/43 117/43/43
f 26/45/44 25/41/44 102/41/44 101/45/44
f 22/44/45 21/46/45 115/46/45 116/44/45
f 27/47/46 26/45/46 101/45/46 100/47/46
f 21/46/47 20/48/47 114/48/47 115/46/47
f 37/7/48 62/49/48 96/49/48 69/7/48
f 38/13/49 44/12/49 74/12/49 75/13/49
f 54/27/50 60/26/50 88/26/50 89/27/50
f 61/28/51 54/50/51 89/50/51 90/28/51
f 44/12/52 43/11/52 73/11/52 74/12/52
f 60/26/53 59/25/53 87/25/53 88/26/53
f 28/51/54 27/47/54 100/47/54 99/51/54
f 9/39/55 11/36/55 12/35/55 13/52/55 14/53/55 15/54/55 10/55/55 23/42/55 25/41/55 26/45/55 27/47/55 28/51/55 29/56/55 24/57/55 30/40/55 32/38/55 33/37/55 34/58/55 35/59/55 36/60/55 31/61/55 16/62/55 18/63/55 19/64/55 20/48/55 21/46/55 22/44/55 17/43/55
f 20/48/56 19/64/56 113/64/56 114/48/56
f 53/21/57 46/65/57 82/65/57 83/21/57
f 43/11/58 42/10/58 72/10/58 73/11/58
f 39/5/59 38/66/59 45/14/59 47/6/59 1/6/59 3/5/59
f 63/2/60 62/49/60 37/7/60 39/5/60 3/5/60 4/2/60
f 47/6/61 46/65/61 53/21/61 55/1/61 2/1/61 1/6/61
f 55/1/62 54/50/62 61/28/62 63/2/62 4/2/62 2/1/62
f 69/7/63 97/57/63 98/56/63 70/67/63
f 70/67/64 98/56/64 99/51/64 71/68/64
f 71/68/65 99/51/65 100/47/65 72/69/65
f 72/69/66 100/47/66 101/45/66 73/70/66
f 73/70/67 101/45/67 102/41/67 74/71/67
f 74/71/68 102/41/68 103/42/68 75/66/68
f 105/39/69 82/65/69 81/72/69 104/36/69
f 104/36/70 81/72/70 80/73/70 106/35/70
f 106/35/71 80/73/71 79/74/71 107/52/71
f 107/52/72 79/74/72 78/75/72 108/53/72
f 108/53/73 78/75/73 77/15/73 109/54/73
f 109/54/74 77/15/74 76/14/74 110/55/74
f 112/62/75 89/50/75 88/76/75 111/63/75
f 111/63/76 88/76/76 87/77/76 113/64/76
f 113/64/77 87/77/77 86/78/77 114/48/77
f 114/48/78 86/78/78 85/23/78 115/46/78
f 115/46/79 85/23/79 84/22/79 116/44/79
f 116/44/80 84/22/80 83/21/80 117/43/80
f 119/40/81 96/49/81 95/79/81 118/38/81
f 118/38/82 95/79/82 94/80/82 120/37/82
f 120/37/83 94/80/83 93/81/83 121/58/83
f 121/58/84 93/81/84 92/82/84 122/59/84
f 122/59/85 92/82/85 91/83/85 123/60/85
f 123/60/86 91/83/86 90/28/86 124/61/86
f 103/42/87 110/55/87 76/14/87 75/66/87
f 105/39/88 117/43/88 83/21/88 82/65/88
f 112/62/89 124/61/89 90/28/89 89/50/89
f 119/40/90 97/57/90 69/7/90 96/49/90
f 34/58/91 33/37/91 120/37/91 121/58/91
f 13/52/92 12/35/92 106/35/92 107/52/92
f 68/33/93 67/32/93 94/32/93 95/33/93
f 52/19/94 51/18/94 80/18/94 81/19/94
f 62/34/95 68/33/95 95/33/95 96/34/95
f 46/20/96 52/19/96 81/19/96 82/20/96
f 35/59/97 34/58/97 121/58/97 122/59/97
f 14/53/98 13/52/98 107/52/98 108/53/98
f 36/60/99 35/59/99 122/59/99 123/60/99
f 15/54/100 14/53/100 108/53/100 109/54/100
f 31/61/101 36/60/101 123/60/101 124/61/101
f 10/55/102 15/54/102 109/54/102 110/55/102
f 23/42/103 10/55/103 110/55/103 103/42/103
f 18/63/104 16/62/104 112/62/104 111/63/104
f 45/14/105 38/66/105 75/66/105 76/14/105
f 24/57/106 29/56/106 98/56/106 97/57/106
f 56/22/107 53/21/107 83/21/107 84/22/107
f 40/8/108 37/7/108 69/7/108 70/8/108
f 9/39/109 17/43/109 117/43/109 105/39/109
f 57/23/110 56/22/110 84/22/110 85/23/110
f 41/9/111 40/8/111 70/8/111 71/9/111
f 30/40/112 24/57/112 97/57/112 119/40/112
f 19/64/113 18/63/113 111/63/113 113/64/113
f 29/56/114 28/51/114 99/51/114 98/56/114
f 58/24/115 57/23/115 85/23/115 86/24/115
f 42/10/116 41/9/116 71/9/116 72/10/116
f 16/62/117 31/61/117 124/61/117 112/62/117
f 59/25/118 58/24/118 86/24/118 87/25/118
f 5/84/119 7/85/119 125/5/119 126/6/119
f 6/3/119 5/84/119 126/6/119 127/1/119
f 8/4/119 6/3/119 127/1/119 128/2/119
f 7/85/119 8/4/119 128/2/119 125/5/119
f 7/85/120 5/84/120 130/84/120 129/85/120
f 8/4/121 7/85/121 129/85/121 132/4/121
f 5/84/122 6/3/122 131/3/122 130/84/122
